<svg xmlns="http://www.w3.org/2000/svg" width="184" height="164" viewBox="0 0 184 164" version="1.1"><path d="M -0 82.005 L -0 164.010 92.250 163.755 L 184.500 163.500 184.756 81.750 L 185.012 0 92.506 0 L 0 0 -0 82.005 M 0.477 82.500 C 0.477 127.600, 0.600 145.904, 0.750 123.175 C 0.900 100.447, 0.900 63.547, 0.750 41.175 C 0.600 18.804, 0.477 37.400, 0.477 82.500 M 70.500 7.892 C 44.197 14.446, 22.609 36.036, 15.986 62.410 C 13.294 73.133, 13.294 88.867, 15.986 99.590 C 19.321 112.872, 25.180 123.208, 34.980 133.099 C 44.658 142.866, 54.063 148.894, 65.722 152.802 C 72.755 155.159, 74.984 155.410, 89 155.429 C 103.397 155.448, 105.069 155.251, 112.500 152.667 C 124.552 148.475, 133.415 142.793, 143.020 133.099 C 152.942 123.085, 158.714 112.811, 162.131 99.084 C 165.089 87.204, 164.451 69.041, 160.671 57.500 C 152.633 32.955, 131.164 13.263, 106.303 7.631 C 96.763 5.469, 79.722 5.594, 70.500 7.892 M 131.432 69.419 C 131.486 76.460, 131.816 78.424, 133 78.745 C 134.064 79.034, 134.150 78.903, 133.294 78.294 C 132.570 77.780, 131.943 74.048, 131.726 68.968 L 131.365 60.500 131.432 69.419 M 97.333 62.667 C 97.700 63.033, 98.300 63.033, 98.667 62.667 C 99.033 62.300, 98.733 62, 98 62 C 97.267 62, 96.967 62.300, 97.333 62.667 M 88 66.713 C 88.825 67.019, 90.175 67.771, 91 68.384 C 92.303 69.354, 92.320 69.271, 91.128 67.750 C 90.373 66.787, 89.023 66.036, 88.128 66.079 C 86.766 66.145, 86.745 66.249, 88 66.713 M 108.333 66.667 C 108.700 67.033, 109.300 67.033, 109.667 66.667 C 110.033 66.300, 109.733 66, 109 66 C 108.267 66, 107.967 66.300, 108.333 66.667 M 120.813 66.683 C 121.534 66.972, 122.397 66.936, 122.729 66.604 C 123.061 66.272, 122.471 66.036, 121.417 66.079 C 120.252 66.127, 120.015 66.364, 120.813 66.683 M 98.320 73 C 98.320 76.575, 98.502 78.037, 98.723 76.250 C 98.945 74.463, 98.945 71.537, 98.723 69.750 C 98.502 67.963, 98.320 69.425, 98.320 73 M 105.278 68.250 C 103.648 70.356, 103.241 72.406, 104.036 74.500 C 104.633 76.071, 104.786 75.811, 104.747 73.285 C 104.720 71.516, 105.271 69.379, 105.971 68.535 C 106.672 67.691, 107.020 67, 106.745 67 C 106.470 67, 105.810 67.563, 105.278 68.250 M 111.500 68 C 111.840 68.550, 112.343 69, 112.618 69 C 112.893 69, 112.840 68.550, 112.500 68 C 112.160 67.450, 111.657 67, 111.382 67 C 111.107 67, 111.160 67.450, 111.500 68 M 117.405 68.155 C 116.962 68.870, 117.130 69.038, 117.845 68.595 C 118.998 67.883, 119.393 67, 118.559 67 C 118.316 67, 117.797 67.520, 117.405 68.155 M 124.070 69 C 123.553 73.443, 124.126 76.466, 125.776 78 C 127.214 79.336, 127.267 79.333, 126.259 77.975 C 125.637 77.136, 124.955 74.211, 124.744 71.475 C 124.533 68.739, 124.230 67.625, 124.070 69 M 84.063 70.050 C 84.029 70.902, 84.540 72.140, 85.200 72.800 C 86.564 74.164, 90.626 74.414, 91.388 73.181 C 91.667 72.730, 90.572 72.556, 88.956 72.793 C 86.589 73.141, 85.835 72.765, 85.073 70.862 C 84.522 69.488, 84.100 69.148, 84.063 70.050 M 119.333 72.667 C 119.700 73.033, 120.300 73.033, 120.667 72.667 C 121.033 72.300, 120.733 72, 120 72 C 119.267 72, 118.967 72.300, 119.333 72.667 M 117.195 75.500 C 117.215 77.150, 117.439 77.704, 117.693 76.731 C 117.947 75.758, 117.930 74.408, 117.656 73.731 C 117.382 73.054, 117.175 73.850, 117.195 75.500 M 111.442 77.094 C 111.070 77.696, 109.707 77.986, 108.413 77.739 C 107.119 77.491, 106.298 77.674, 106.589 78.144 C 107.436 79.515, 110.645 79.133, 112 77.500 C 112.685 76.675, 112.991 76, 112.681 76 C 112.372 76, 111.814 76.492, 111.442 77.094 M 86.750 77.662 C 87.438 77.940, 88.563 77.940, 89.250 77.662 C 89.938 77.385, 89.375 77.158, 88 77.158 C 86.625 77.158, 86.063 77.385, 86.750 77.662 M 91.896 78.914 C 92.763 79.463, 93.024 80.499, 92.586 81.649 C 92.042 83.078, 92.153 83.231, 93.074 82.317 C 94.487 80.915, 93.609 77.993, 91.781 78.015 C 90.823 78.027, 90.852 78.254, 91.896 78.914 M 119.333 78.667 C 119.700 79.033, 120.300 79.033, 120.667 78.667 C 121.033 78.300, 120.733 78, 120 78 C 119.267 78, 118.967 78.300, 119.333 78.667 M 83.030 80.628 C 82.977 82.616, 85.795 84.157, 88.690 83.722 C 91.420 83.312, 91.409 83.295, 88.300 83.150 C 86.429 83.062, 84.676 82.273, 84.080 81.250 C 83.519 80.287, 83.047 80.007, 83.030 80.628" stroke="none" fill="#ffffff" fill-rule="evenodd"/><path d="M 81.250 6.689 C 82.213 6.941, 83.787 6.941, 84.750 6.689 C 85.713 6.438, 84.925 6.232, 83 6.232 C 81.075 6.232, 80.287 6.438, 81.250 6.689 M 93.250 6.689 C 94.213 6.941, 95.787 6.941, 96.750 6.689 C 97.713 6.438, 96.925 6.232, 95 6.232 C 93.075 6.232, 92.287 6.438, 93.250 6.689 M 74.813 7.683 C 75.534 7.972, 76.397 7.936, 76.729 7.604 C 77.061 7.272, 76.471 7.036, 75.417 7.079 C 74.252 7.127, 74.015 7.364, 74.813 7.683 M 101.813 7.683 C 102.534 7.972, 103.397 7.936, 103.729 7.604 C 104.061 7.272, 103.471 7.036, 102.417 7.079 C 101.252 7.127, 101.015 7.364, 101.813 7.683 M 70.333 8.667 C 70.700 9.033, 71.300 9.033, 71.667 8.667 C 72.033 8.300, 71.733 8, 71 8 C 70.267 8, 69.967 8.300, 70.333 8.667 M 106.333 8.667 C 106.700 9.033, 107.300 9.033, 107.667 8.667 C 108.033 8.300, 107.733 8, 107 8 C 106.267 8, 105.967 8.300, 106.333 8.667 M 66.333 9.667 C 66.700 10.033, 67.300 10.033, 67.667 9.667 C 68.033 9.300, 67.733 9, 67 9 C 66.267 9, 65.967 9.300, 66.333 9.667 M 110.333 9.667 C 110.700 10.033, 111.300 10.033, 111.667 9.667 C 112.033 9.300, 111.733 9, 111 9 C 110.267 9, 109.967 9.300, 110.333 9.667 M 45.405 20.155 C 44.962 20.870, 45.130 21.038, 45.845 20.595 C 46.998 19.883, 47.393 19, 46.559 19 C 46.316 19, 45.797 19.520, 45.405 20.155 M 131.500 20 C 131.840 20.550, 132.343 21, 132.618 21 C 132.893 21, 132.840 20.550, 132.500 20 C 132.160 19.450, 131.657 19, 131.382 19 C 131.107 19, 131.160 19.450, 131.500 20 M 41.405 23.155 C 40.962 23.870, 41.130 24.038, 41.845 23.595 C 42.998 22.883, 43.393 22, 42.559 22 C 42.316 22, 41.797 22.520, 41.405 23.155 M 135.500 23 C 135.840 23.550, 136.343 24, 136.618 24 C 136.893 24, 136.840 23.550, 136.500 23 C 136.160 22.450, 135.657 22, 135.382 22 C 135.107 22, 135.160 22.450, 135.500 23 M 35.405 28.155 C 34.962 28.870, 35.130 29.038, 35.845 28.595 C 36.998 27.883, 37.393 27, 36.559 27 C 36.316 27, 35.797 27.520, 35.405 28.155 M 141.500 28 C 141.840 28.550, 142.343 29, 142.618 29 C 142.893 29, 142.840 28.550, 142.500 28 C 142.160 27.450, 141.657 27, 141.382 27 C 141.107 27, 141.160 27.450, 141.500 28 M 29.872 34.750 C 28.629 36.336, 28.664 36.371, 30.250 35.128 C 31.916 33.821, 32.445 33, 31.622 33 C 31.415 33, 30.627 33.788, 29.872 34.750 M 146 33.378 C 146 33.585, 146.787 34.373, 147.750 35.128 C 149.336 36.371, 149.371 36.336, 148.128 34.750 C 146.821 33.084, 146 32.555, 146 33.378 M 26.405 39.155 C 25.962 39.870, 26.130 40.038, 26.845 39.595 C 27.480 39.203, 28 38.684, 28 38.441 C 28 37.607, 27.117 38.002, 26.405 39.155 M 150.500 39 C 150.840 39.550, 151.343 40, 151.618 40 C 151.893 40, 151.840 39.550, 151.500 39 C 151.160 38.450, 150.657 38, 150.382 38 C 150.107 38, 150.160 38.450, 150.500 39 M 18 56 C 18 56.733, 18.300 57.033, 18.667 56.667 C 19.033 56.300, 19.033 55.700, 18.667 55.333 C 18.300 54.967, 18 55.267, 18 56 M 159 56 C 159 56.733, 159.300 57.033, 159.667 56.667 C 160.033 56.300, 160.033 55.700, 159.667 55.333 C 159.300 54.967, 159 55.267, 159 56 M 17 59 C 17 59.733, 17.300 60.033, 17.667 59.667 C 18.033 59.300, 18.033 58.700, 17.667 58.333 C 17.300 57.967, 17 58.267, 17 59 M 160 59 C 160 59.733, 160.300 60.033, 160.667 59.667 C 161.033 59.300, 161.033 58.700, 160.667 58.333 C 160.300 57.967, 160 58.267, 160 59 M 130.975 60.658 C 131.545 60.941, 132 64.655, 132 69.024 C 132 73.689, 132.450 77.160, 133.107 77.566 C 133.878 78.043, 133.803 78.510, 132.857 79.110 C 131.949 79.685, 131.894 79.974, 132.691 79.985 C 134.383 80.006, 135.466 77.906, 134.174 77.108 C 133.579 76.740, 132.959 72.889, 132.796 68.550 C 132.593 63.149, 132.098 60.580, 131.225 60.405 C 130.524 60.265, 130.411 60.379, 130.975 60.658 M 45.211 69.750 C 45.492 78.253, 45.570 78.508, 48 78.779 C 50.295 79.036, 50.356 78.945, 48.750 77.669 C 47.357 76.563, 47 74.720, 47 68.640 C 47 64.022, 46.589 61, 45.961 61 C 45.300 61, 45.027 64.179, 45.211 69.750 M 99 62 C 99 62.733, 99.300 63.033, 99.667 62.667 C 100.033 62.300, 100.033 61.700, 99.667 61.333 C 99.300 60.967, 99 61.267, 99 62 M 16 63 C 16 63.733, 16.300 64.033, 16.667 63.667 C 17.033 63.300, 17.033 62.700, 16.667 62.333 C 16.300 61.967, 16 62.267, 16 63 M 96.500 63 C 96.840 63.550, 97.343 64, 97.618 64 C 97.893 64, 97.840 63.550, 97.500 63 C 97.160 62.450, 96.657 62, 96.382 62 C 96.107 62, 96.160 62.450, 96.500 63 M 161 63 C 161 63.733, 161.300 64.033, 161.667 63.667 C 162.033 63.300, 162.033 62.700, 161.667 62.333 C 161.300 61.967, 161 62.267, 161 63 M 108.333 65.667 C 108.700 66.033, 109.300 66.033, 109.667 65.667 C 110.033 65.300, 109.733 65, 109 65 C 108.267 65, 107.967 65.300, 108.333 65.667 M 15 67 C 15 67.733, 15.300 68.033, 15.667 67.667 C 16.033 67.300, 16.033 66.700, 15.667 66.333 C 15.300 65.967, 15 66.267, 15 67 M 52.714 66.619 C 52.321 67.012, 52 68.023, 52 68.867 C 52 70.059, 52.267 70.133, 53.200 69.200 C 54.726 67.674, 59.294 67.619, 58.789 69.133 C 58.581 69.756, 56.856 70.769, 54.956 71.383 C 49.695 73.083, 49.802 79.175, 55.090 79.038 C 56.415 79.004, 58.737 78.963, 60.250 78.948 C 61.763 78.932, 63 78.488, 63 77.960 C 63 77.432, 62.574 77, 62.052 77 C 61.531 77, 60.969 74.638, 60.802 71.750 C 60.502 66.528, 60.481 66.498, 56.964 66.202 C 55.020 66.039, 53.107 66.226, 52.714 66.619 M 64.019 67.250 C 64.030 67.938, 64.622 70.749, 65.334 73.499 C 67.087 80.260, 69.299 80.567, 71.065 74.296 L 72.416 69.500 73.783 74.309 C 75.683 80.994, 77.924 80.343, 79.683 72.595 C 80.926 67.123, 80.830 64.837, 79.418 66.249 C 79.098 66.569, 78.296 68.946, 77.637 71.531 L 76.438 76.232 75.126 71.116 C 73.457 64.601, 71.421 64.442, 69.845 70.703 C 68.604 75.632, 67.946 75.242, 66.552 68.750 C 65.967 66.024, 63.982 64.848, 64.019 67.250 M 84.405 67.155 C 83.962 67.870, 84.130 68.038, 84.845 67.595 C 85.998 66.883, 86.393 66, 85.559 66 C 85.316 66, 84.797 66.520, 84.405 67.155 M 92.405 67.155 C 91.962 67.870, 92.130 68.038, 92.845 67.595 C 93.998 66.883, 94.393 66, 93.559 66 C 93.316 66, 92.797 66.520, 92.405 67.155 M 99.328 72.500 C 99.333 76.350, 99.513 77.802, 99.730 75.728 C 99.946 73.653, 99.943 70.503, 99.722 68.728 C 99.501 66.952, 99.324 68.650, 99.328 72.500 M 103.980 67.524 C 103.284 68.362, 102.909 69.242, 103.145 69.479 C 103.382 69.715, 104.125 69.030, 104.796 67.955 C 106.248 65.630, 105.764 65.375, 103.980 67.524 M 112.500 67 C 112.840 67.550, 113.343 68, 113.618 68 C 113.893 68, 113.840 67.550, 113.500 67 C 113.160 66.450, 112.657 66, 112.382 66 C 112.107 66, 112.160 66.450, 112.500 67 M 124.500 67 C 124.840 67.550, 125.343 68, 125.618 68 C 125.893 68, 125.840 67.550, 125.500 67 C 125.160 66.450, 124.657 66, 124.382 66 C 124.107 66, 124.160 66.450, 124.500 67 M 162.079 67.583 C 162.127 68.748, 162.364 68.985, 162.683 68.188 C 162.972 67.466, 162.936 66.603, 162.604 66.271 C 162.272 65.939, 162.036 66.529, 162.079 67.583 M 116 67.941 C 116 68.459, 116.445 69.157, 116.989 69.493 C 117.555 69.843, 117.723 69.442, 117.382 68.552 C 116.717 66.820, 116 66.503, 116 67.941 M 111.733 69.124 C 112.412 69.808, 113.219 70.115, 113.526 69.807 C 113.834 69.499, 113.279 68.940, 112.293 68.564 C 110.868 68.022, 110.753 68.136, 111.733 69.124 M 123 69 C 123 69.733, 123.300 70.033, 123.667 69.667 C 124.033 69.300, 124.033 68.700, 123.667 68.333 C 123.300 67.967, 123 68.267, 123 69 M 83.079 70.583 C 83.127 71.748, 83.364 71.985, 83.683 71.188 C 83.972 70.466, 83.936 69.603, 83.604 69.271 C 83.272 68.939, 83.036 69.529, 83.079 70.583 M 89.405 72.155 C 88.962 72.870, 89.130 73.038, 89.845 72.595 C 90.998 71.883, 91.393 71, 90.559 71 C 90.316 71, 89.797 71.520, 89.405 72.155 M 14.232 75 C 14.232 76.925, 14.438 77.713, 14.689 76.750 C 14.941 75.787, 14.941 74.213, 14.689 73.250 C 14.438 72.287, 14.232 73.075, 14.232 75 M 116.405 73.155 C 115.962 73.870, 116.130 74.038, 116.845 73.595 C 117.998 72.883, 118.393 72, 117.559 72 C 117.316 72, 116.797 72.520, 116.405 73.155 M 163.232 75 C 163.232 76.925, 163.438 77.713, 163.689 76.750 C 163.941 75.787, 163.941 74.213, 163.689 73.250 C 163.438 72.287, 163.232 73.075, 163.232 75 M 54.667 73.667 C 53.125 75.208, 54.083 77.127, 56.240 76.820 C 59.071 76.416, 59.965 73, 57.240 73 C 56.191 73, 55.033 73.300, 54.667 73.667 M 118.405 74.155 C 117.962 74.870, 118.130 75.038, 118.845 74.595 C 119.480 74.203, 120 73.684, 120 73.441 C 120 72.607, 119.117 73.002, 118.405 74.155 M 89.333 74.667 C 89.700 75.033, 90.300 75.033, 90.667 74.667 C 91.033 74.300, 90.733 74, 90 74 C 89.267 74, 88.967 74.300, 89.333 74.667 M 86.333 76.667 C 86.700 77.033, 87.300 77.033, 87.667 76.667 C 88.033 76.300, 87.733 76, 87 76 C 86.267 76, 85.967 76.300, 86.333 76.667 M 103 76.378 C 103 76.585, 103.787 77.373, 104.750 78.128 C 106.336 79.371, 106.371 79.336, 105.128 77.750 C 103.821 76.084, 103 75.555, 103 76.378 M 118.768 77.168 C 119.350 77.750, 120.415 78.028, 121.137 77.788 C 121.886 77.538, 121.432 77.085, 120.080 76.731 C 118.417 76.296, 118.026 76.426, 118.768 77.168 M 83.028 78.466 C 82.359 79.273, 81.966 80.383, 82.155 80.934 C 82.345 81.484, 83.020 80.824, 83.656 79.467 C 84.974 76.654, 84.783 76.351, 83.028 78.466 M 112.405 78.155 C 111.962 78.870, 112.130 79.038, 112.845 78.595 C 113.480 78.203, 114 77.684, 114 77.441 C 114 76.607, 113.117 77.002, 112.405 78.155 M 116.500 78 C 116.840 78.550, 117.343 79, 117.618 79 C 117.893 79, 117.840 78.550, 117.500 78 C 117.160 77.450, 116.657 77, 116.382 77 C 116.107 77, 116.160 77.450, 116.500 78 M 94.079 80.583 C 94.127 81.748, 94.364 81.985, 94.683 81.188 C 94.972 80.466, 94.936 79.603, 94.604 79.271 C 94.272 78.939, 94.036 79.529, 94.079 80.583 M 108.333 79.667 C 108.700 80.033, 109.300 80.033, 109.667 79.667 C 110.033 79.300, 109.733 79, 109 79 C 108.267 79, 107.967 79.300, 108.333 79.667 M 119.333 79.667 C 119.700 80.033, 120.300 80.033, 120.667 79.667 C 121.033 79.300, 120.733 79, 120 79 C 119.267 79, 118.967 79.300, 119.333 79.667 M 87.269 82.693 C 88.242 82.947, 89.592 82.930, 90.269 82.656 C 90.946 82.382, 90.150 82.175, 88.500 82.195 C 86.850 82.215, 86.296 82.439, 87.269 82.693 M 14.252 86.500 C 14.263 88.700, 14.468 89.482, 14.707 88.238 C 14.946 86.994, 14.937 85.194, 14.687 84.238 C 14.437 83.282, 14.241 84.300, 14.252 86.500 M 163.252 86.500 C 163.263 88.700, 163.468 89.482, 163.707 88.238 C 163.946 86.994, 163.937 85.194, 163.687 84.238 C 163.437 83.282, 163.241 84.300, 163.252 86.500 M 86.250 84.689 C 87.213 84.941, 88.787 84.941, 89.750 84.689 C 90.713 84.438, 89.925 84.232, 88 84.232 C 86.075 84.232, 85.287 84.438, 86.250 84.689 M 15.079 94.583 C 15.127 95.748, 15.364 95.985, 15.683 95.188 C 15.972 94.466, 15.936 93.603, 15.604 93.271 C 15.272 92.939, 15.036 93.529, 15.079 94.583 M 162.079 94.583 C 162.127 95.748, 162.364 95.985, 162.683 95.188 C 162.972 94.466, 162.936 93.603, 162.604 93.271 C 162.272 92.939, 162.036 93.529, 162.079 94.583 M 16 99 C 16 99.733, 16.300 100.033, 16.667 99.667 C 17.033 99.300, 17.033 98.700, 16.667 98.333 C 16.300 97.967, 16 98.267, 16 99 M 161 99 C 161 99.733, 161.300 100.033, 161.667 99.667 C 162.033 99.300, 162.033 98.700, 161.667 98.333 C 161.300 97.967, 161 98.267, 161 99 M 17 103 C 17 103.733, 17.300 104.033, 17.667 103.667 C 18.033 103.300, 18.033 102.700, 17.667 102.333 C 17.300 101.967, 17 102.267, 17 103 M 160 103 C 160 103.733, 160.300 104.033, 160.667 103.667 C 161.033 103.300, 161.033 102.700, 160.667 102.333 C 160.300 101.967, 160 102.267, 160 103 M 18 106 C 18 106.733, 18.300 107.033, 18.667 106.667 C 19.033 106.300, 19.033 105.700, 18.667 105.333 C 18.300 104.967, 18 105.267, 18 106 M 159 106 C 159 106.733, 159.300 107.033, 159.667 106.667 C 160.033 106.300, 160.033 105.700, 159.667 105.333 C 159.300 104.967, 159 105.267, 159 106 M 23.500 118 C 23.840 118.550, 24.343 119, 24.618 119 C 24.893 119, 24.840 118.550, 24.500 118 C 24.160 117.450, 23.657 117, 23.382 117 C 23.107 117, 23.160 117.450, 23.500 118 M 153.405 118.155 C 152.962 118.870, 153.130 119.038, 153.845 118.595 C 154.998 117.883, 155.393 117, 154.559 117 C 154.316 117, 153.797 117.520, 153.405 118.155 M 26.500 123 C 26.840 123.550, 27.343 124, 27.618 124 C 27.893 124, 27.840 123.550, 27.500 123 C 27.160 122.450, 26.657 122, 26.382 122 C 26.107 122, 26.160 122.450, 26.500 123 M 150.405 123.155 C 149.962 123.870, 150.130 124.038, 150.845 123.595 C 151.998 122.883, 152.393 122, 151.559 122 C 151.316 122, 150.797 122.520, 150.405 123.155 M 29.500 127 C 29.840 127.550, 30.343 128, 30.618 128 C 30.893 128, 30.840 127.550, 30.500 127 C 30.160 126.450, 29.657 126, 29.382 126 C 29.107 126, 29.160 126.450, 29.500 127 M 147.405 127.155 C 146.962 127.870, 147.130 128.038, 147.845 127.595 C 148.998 126.883, 149.393 126, 148.559 126 C 148.316 126, 147.797 126.520, 147.405 127.155 M 34 132.378 C 34 132.585, 34.788 133.373, 35.750 134.128 C 37.336 135.371, 37.371 135.336, 36.128 133.750 C 34.821 132.084, 34 131.555, 34 132.378 M 141.405 134.155 C 140.962 134.870, 141.130 135.038, 141.845 134.595 C 142.480 134.203, 143 133.684, 143 133.441 C 143 132.607, 142.117 133.002, 141.405 134.155 M 42.500 140 C 42.840 140.550, 43.343 141, 43.618 141 C 43.893 141, 43.840 140.550, 43.500 140 C 43.160 139.450, 42.657 139, 42.382 139 C 42.107 139, 42.160 139.450, 42.500 140 M 134.405 140.155 C 133.962 140.870, 134.130 141.038, 134.845 140.595 C 135.480 140.203, 136 139.684, 136 139.441 C 136 138.607, 135.117 139.002, 134.405 140.155 M 45.500 142 C 45.840 142.550, 46.343 143, 46.618 143 C 46.893 143, 46.840 142.550, 46.500 142 C 46.160 141.450, 45.657 141, 45.382 141 C 45.107 141, 45.160 141.450, 45.500 142 M 131.405 142.155 C 130.962 142.870, 131.130 143.038, 131.845 142.595 C 132.480 142.203, 133 141.684, 133 141.441 C 133 140.607, 132.117 141.002, 131.405 142.155 M 66.333 152.667 C 66.700 153.033, 67.300 153.033, 67.667 152.667 C 68.033 152.300, 67.733 152, 67 152 C 66.267 152, 65.967 152.300, 66.333 152.667 M 110.333 152.667 C 110.700 153.033, 111.300 153.033, 111.667 152.667 C 112.033 152.300, 111.733 152, 111 152 C 110.267 152, 109.967 152.300, 110.333 152.667 M 70.333 153.667 C 70.700 154.033, 71.300 154.033, 71.667 153.667 C 72.033 153.300, 71.733 153, 71 153 C 70.267 153, 69.967 153.300, 70.333 153.667 M 106.333 153.667 C 106.700 154.033, 107.300 154.033, 107.667 153.667 C 108.033 153.300, 107.733 153, 107 153 C 106.267 153, 105.967 153.300, 106.333 153.667 M 74.813 154.683 C 75.534 154.972, 76.397 154.936, 76.729 154.604 C 77.061 154.272, 76.471 154.036, 75.417 154.079 C 74.252 154.127, 74.015 154.364, 74.813 154.683 M 101.813 154.683 C 102.534 154.972, 103.397 154.936, 103.729 154.604 C 104.061 154.272, 103.471 154.036, 102.417 154.079 C 101.252 154.127, 101.015 154.364, 101.813 154.683 M 82.250 155.689 C 83.213 155.941, 84.787 155.941, 85.750 155.689 C 86.713 155.438, 85.925 155.232, 84 155.232 C 82.075 155.232, 81.287 155.438, 82.250 155.689 M 92.250 155.689 C 93.213 155.941, 94.787 155.941, 95.750 155.689 C 96.713 155.438, 95.925 155.232, 94 155.232 C 92.075 155.232, 91.287 155.438, 92.250 155.689" stroke="none" fill="#384686" fill-rule="evenodd"/><path d="M 79.661 7.114 C 51.188 10.845, 26.829 30.878, 18.395 57.500 C 2.853 106.558, 38.001 155.189, 89 155.189 C 140.148 155.189, 175.107 106.593, 159.500 57.189 C 149.173 24.498, 114.233 2.584, 79.661 7.114 M 130 68.794 C 130 75.649, 130.363 78.056, 131.542 79.035 C 132.741 80.030, 133.352 80.048, 134.284 79.116 C 135.214 78.186, 135.215 77.751, 134.288 77.178 C 133.569 76.734, 132.974 73.292, 132.796 68.550 C 132.601 63.349, 132.074 60.520, 131.250 60.247 C 130.312 59.937, 130 62.072, 130 68.794 M 45.211 69.750 C 45.492 78.253, 45.570 78.508, 48 78.779 C 50.295 79.036, 50.356 78.945, 48.750 77.669 C 47.357 76.563, 47 74.720, 47 68.640 C 47 64.022, 46.589 61, 45.961 61 C 45.300 61, 45.027 64.179, 45.211 69.750 M 96.543 61.931 C 96.226 62.443, 96.425 63.144, 96.984 63.490 C 98.177 64.227, 100 63.291, 100 61.941 C 100 60.724, 97.293 60.716, 96.543 61.931 M 91.484 65.027 C 91.135 65.591, 90.321 65.988, 89.675 65.908 C 85.255 65.362, 82.093 68.433, 83.577 71.828 C 84.473 73.879, 84.143 77.171, 82.914 78.450 C 81.562 79.856, 81.800 81.657, 83.571 83.429 C 87.210 87.068, 95.986 83.681, 94.560 79.188 C 94.075 77.660, 93.056 76.995, 91.183 76.985 C 89.707 76.976, 87.825 76.533, 87 76 C 85.822 75.239, 86.064 75.027, 88.128 75.015 C 91.455 74.996, 92.564 73.566, 93.375 68.250 C 93.983 64.265, 92.995 62.581, 91.484 65.027 M 106 66.294 C 103.840 67.387, 103.500 68.233, 103.500 72.516 C 103.500 76.896, 103.810 77.621, 106.158 78.747 C 109.306 80.256, 114 78.925, 114 76.525 C 114 74.806, 112.440 74.479, 111.500 76 C 110.420 77.748, 107.112 77.078, 105.932 74.874 C 105.106 73.330, 105.091 72.096, 105.876 70.374 C 106.970 67.972, 110.354 67.146, 111.500 69 C 112.440 70.521, 114 70.194, 114 68.475 C 114 67.637, 112.846 66.512, 111.435 65.975 C 108.361 64.807, 109.017 64.768, 106 66.294 M 118.750 66.229 C 115.951 67.183, 115.254 68.421, 116.931 69.457 C 117.443 69.774, 118.144 69.575, 118.490 69.016 C 119.399 67.545, 123 67.766, 123 69.293 C 123 70.004, 121.537 71.017, 119.750 71.543 C 117.269 72.274, 116.427 73.135, 116.190 75.183 C 115.853 78.101, 119.027 80.720, 121.242 79.350 C 121.902 78.942, 123.693 78.704, 125.221 78.820 C 126.750 78.936, 128 78.575, 128 78.016 C 128 77.457, 127.574 77, 127.052 77 C 126.531 77, 125.969 74.687, 125.802 71.860 C 125.461 66.056, 123.605 64.574, 118.750 66.229 M 52.714 66.619 C 52.321 67.012, 52 68.023, 52 68.867 C 52 70.059, 52.267 70.133, 53.200 69.200 C 54.726 67.674, 59.294 67.619, 58.789 69.133 C 58.581 69.756, 56.856 70.769, 54.956 71.383 C 49.695 73.083, 49.802 79.175, 55.090 79.038 C 56.415 79.004, 58.737 78.963, 60.250 78.948 C 61.763 78.932, 63 78.488, 63 77.960 C 63 77.432, 62.574 77, 62.052 77 C 61.531 77, 60.969 74.638, 60.802 71.750 C 60.502 66.528, 60.481 66.498, 56.964 66.202 C 55.020 66.039, 53.107 66.226, 52.714 66.619 M 64.019 67.250 C 64.030 67.938, 64.622 70.749, 65.334 73.499 C 67.087 80.260, 69.299 80.567, 71.065 74.296 L 72.416 69.500 73.783 74.309 C 75.683 80.994, 77.924 80.343, 79.683 72.595 C 80.926 67.123, 80.830 64.837, 79.418 66.249 C 79.098 66.569, 78.296 68.946, 77.637 71.531 L 76.438 76.232 75.126 71.116 C 73.457 64.601, 71.421 64.442, 69.845 70.703 C 68.604 75.632, 67.946 75.242, 66.552 68.750 C 65.967 66.024, 63.982 64.848, 64.019 67.250 M 97 72.500 C 97 77.611, 97.321 79, 98.500 79 C 99.679 79, 100 77.611, 100 72.500 C 100 67.389, 99.679 66, 98.500 66 C 97.321 66, 97 67.389, 97 72.500 M 86.323 69.601 C 85.470 71.823, 88.134 73.294, 89.868 71.560 C 90.621 70.807, 90.932 69.699, 90.559 69.096 C 89.553 67.468, 87.026 67.769, 86.323 69.601 M 54.667 73.667 C 53.125 75.208, 54.083 77.127, 56.240 76.820 C 59.071 76.416, 59.965 73, 57.240 73 C 56.191 73, 55.033 73.300, 54.667 73.667 M 119.131 74.342 C 117.829 75.911, 118.619 77, 121.060 77 C 122.492 77, 124 75.163, 124 73.418 C 124 72.398, 120.136 73.131, 119.131 74.342 M 85 80.437 C 85 81.564, 86 82, 88.583 82 C 93.102 82, 92.757 79.639, 88.173 79.187 C 85.828 78.955, 85 79.281, 85 80.437" stroke="none" fill="#222222" fill-rule="evenodd"/><path d="M 77.813 6.683 C 78.534 6.972, 79.397 6.936, 79.729 6.604 C 80.061 6.272, 79.471 6.036, 78.417 6.079 C 77.252 6.127, 77.015 6.364, 77.813 6.683 M 98.813 6.683 C 99.534 6.972, 100.397 6.936, 100.729 6.604 C 101.061 6.272, 100.471 6.036, 99.417 6.079 C 98.252 6.127, 98.015 6.364, 98.813 6.683 M 72.333 7.667 C 72.700 8.033, 73.300 8.033, 73.667 7.667 C 74.033 7.300, 73.733 7, 73 7 C 72.267 7, 71.967 7.300, 72.333 7.667 M 104.333 7.667 C 104.700 8.033, 105.300 8.033, 105.667 7.667 C 106.033 7.300, 105.733 7, 105 7 C 104.267 7, 103.967 7.300, 104.333 7.667 M 68.333 8.667 C 68.700 9.033, 69.300 9.033, 69.667 8.667 C 70.033 8.300, 69.733 8, 69 8 C 68.267 8, 67.967 8.300, 68.333 8.667 M 108.333 8.667 C 108.700 9.033, 109.300 9.033, 109.667 8.667 C 110.033 8.300, 109.733 8, 109 8 C 108.267 8, 107.967 8.300, 108.333 8.667 M 63 10 C 62.175 10.533, 61.950 10.969, 62.500 10.969 C 63.050 10.969, 64.175 10.533, 65 10 C 65.825 9.467, 66.050 9.031, 65.500 9.031 C 64.950 9.031, 63.825 9.467, 63 10 M 113 10 C 113.825 10.533, 114.950 10.969, 115.500 10.969 C 116.050 10.969, 115.825 10.533, 115 10 C 114.175 9.467, 113.050 9.031, 112.500 9.031 C 111.950 9.031, 112.175 9.467, 113 10 M 58 12 C 57.175 12.533, 56.950 12.969, 57.500 12.969 C 58.050 12.969, 59.175 12.533, 60 12 C 60.825 11.467, 61.050 11.031, 60.500 11.031 C 59.950 11.031, 58.825 11.467, 58 12 M 118 12 C 118.825 12.533, 119.950 12.969, 120.500 12.969 C 121.050 12.969, 120.825 12.533, 120 12 C 119.175 11.467, 118.050 11.031, 117.500 11.031 C 116.950 11.031, 117.175 11.467, 118 12 M 52.405 15.155 C 51.962 15.870, 52.130 16.038, 52.845 15.595 C 53.998 14.883, 54.393 14, 53.559 14 C 53.316 14, 52.797 14.520, 52.405 15.155 M 124.500 15 C 124.840 15.550, 125.343 16, 125.618 16 C 125.893 16, 125.840 15.550, 125.500 15 C 125.160 14.450, 124.657 14, 124.382 14 C 124.107 14, 124.160 14.450, 124.500 15 M 47.405 18.155 C 46.962 18.870, 47.130 19.038, 47.845 18.595 C 48.998 17.883, 49.393 17, 48.559 17 C 48.316 17, 47.797 17.520, 47.405 18.155 M 129.500 18 C 129.840 18.550, 130.343 19, 130.618 19 C 130.893 19, 130.840 18.550, 130.500 18 C 130.160 17.450, 129.657 17, 129.382 17 C 129.107 17, 129.160 17.450, 129.500 18 M 43.872 20.750 C 42.629 22.336, 42.664 22.371, 44.250 21.128 C 45.212 20.373, 46 19.585, 46 19.378 C 46 18.555, 45.179 19.084, 43.872 20.750 M 132 19.378 C 132 19.585, 132.787 20.373, 133.750 21.128 C 135.336 22.371, 135.371 22.336, 134.128 20.750 C 132.821 19.084, 132 18.555, 132 19.378 M 38.924 24.750 L 36.500 27.500 39.250 25.076 C 41.820 22.810, 42.459 22, 41.674 22 C 41.495 22, 40.258 23.238, 38.924 24.750 M 138 24.500 C 139.292 25.875, 140.574 27, 140.849 27 C 141.124 27, 140.292 25.875, 139 24.500 C 137.708 23.125, 136.426 22, 136.151 22 C 135.876 22, 136.708 23.125, 138 24.500 M 31.924 31.750 L 29.500 34.500 32.250 32.076 C 34.820 29.810, 35.459 29, 34.674 29 C 34.495 29, 33.258 30.238, 31.924 31.750 M 145 31.500 C 146.292 32.875, 147.574 34, 147.849 34 C 148.124 34, 147.292 32.875, 146 31.500 C 144.708 30.125, 143.426 29, 143.151 29 C 142.876 29, 143.708 30.125, 145 31.500 M 26.872 37.750 C 25.629 39.336, 25.664 39.371, 27.250 38.128 C 28.212 37.373, 29 36.585, 29 36.378 C 29 35.555, 28.179 36.084, 26.872 37.750 M 149.500 37 C 149.840 37.550, 150.343 38, 150.618 38 C 150.893 38, 150.840 37.550, 150.500 37 C 150.160 36.450, 149.657 36, 149.382 36 C 149.107 36, 149.160 36.450, 149.500 37 M 23.405 43.155 C 22.962 43.870, 23.130 44.038, 23.845 43.595 C 24.480 43.203, 25 42.684, 25 42.441 C 25 41.607, 24.117 42.002, 23.405 43.155 M 153.500 43 C 153.840 43.550, 154.343 44, 154.618 44 C 154.893 44, 154.840 43.550, 154.500 43 C 154.160 42.450, 153.657 42, 153.382 42 C 153.107 42, 153.160 42.450, 153.500 43 M 19 52 C 19 52.733, 19.300 53.033, 19.667 52.667 C 20.033 52.300, 20.033 51.700, 19.667 51.333 C 19.300 50.967, 19 51.267, 19 52 M 158 52 C 158 52.733, 158.300 53.033, 158.667 52.667 C 159.033 52.300, 159.033 51.700, 158.667 51.333 C 158.300 50.967, 158 51.267, 158 52 M 16 61 C 16 61.733, 16.300 62.033, 16.667 61.667 C 17.033 61.300, 17.033 60.700, 16.667 60.333 C 16.300 59.967, 16 60.267, 16 61 M 161 61 C 161 61.733, 161.300 62.033, 161.667 61.667 C 162.033 61.300, 162.033 60.700, 161.667 60.333 C 161.300 59.967, 161 60.267, 161 61 M 97.333 61.667 C 97.700 62.033, 98.300 62.033, 98.667 61.667 C 99.033 61.300, 98.733 61, 98 61 C 97.267 61, 96.967 61.300, 97.333 61.667 M 130.206 69.191 C 130.013 77.326, 130.906 80.579, 132.585 77.862 C 133.028 77.145, 132.876 76.958, 132.194 77.380 C 131.415 77.862, 130.978 75.422, 130.745 69.285 L 130.411 60.500 130.206 69.191 M 15 65 C 15 65.733, 15.300 66.033, 15.667 65.667 C 16.033 65.300, 16.033 64.700, 15.667 64.333 C 15.300 63.967, 15 64.267, 15 65 M 92.405 64.845 C 92.823 65.522, 92.497 66, 91.618 66 C 90.793 66, 89.833 66.461, 89.485 67.025 C 89.136 67.588, 89.222 67.985, 89.676 67.906 C 91.601 67.572, 91.898 68.139, 91.013 70.465 C 90.377 72.139, 90.435 73.151, 91.193 73.619 C 91.871 74.038, 92.029 73.856, 91.595 73.155 C 91.203 72.520, 91.297 72, 91.804 72 C 92.312 72, 92.650 70.987, 92.555 69.750 C 92.461 68.513, 92.770 66.978, 93.241 66.339 C 93.751 65.648, 93.610 64.877, 92.894 64.435 C 92.131 63.963, 91.952 64.114, 92.405 64.845 M 162 65 C 162 65.733, 162.300 66.033, 162.667 65.667 C 163.033 65.300, 163.033 64.700, 162.667 64.333 C 162.300 63.967, 162 64.267, 162 65 M 85.500 67.355 C 84.950 67.985, 84.514 70.525, 84.531 73 C 84.548 75.475, 84.316 77.950, 84.015 78.500 C 83.124 80.130, 83.443 82.986, 84.511 82.946 C 85.055 82.926, 85.359 82.030, 85.187 80.955 C 84.947 79.456, 85.453 79, 87.355 79 C 88.720 79, 90.557 78.724, 91.437 78.386 C 92.807 77.860, 92.887 78.167, 91.991 80.525 C 90.917 83.348, 91.209 84.607, 92.720 83.673 C 93.189 83.383, 93.508 81.876, 93.429 80.323 C 93.296 77.710, 93.014 77.522, 89.643 77.793 C 86.899 78.014, 86 77.706, 86 76.543 C 86 75.694, 86.787 74.968, 87.750 74.930 C 89.182 74.872, 89.228 74.736, 88 74.180 C 86.115 73.326, 85.427 68.972, 87.021 67.987 C 87.677 67.582, 87.828 67.016, 87.357 66.730 C 86.886 66.444, 86.050 66.725, 85.500 67.355 M 97.136 72.750 C 97.277 79.745, 97.697 78.967, 98.215 70.750 C 98.380 68.138, 98.174 66, 97.757 66 C 97.341 66, 97.061 69.037, 97.136 72.750 M 104.976 67.529 C 104.212 68.450, 104.212 69.013, 104.976 69.485 C 105.567 69.850, 105.926 69.601, 105.775 68.932 C 105.457 67.526, 110.809 67.183, 113.051 68.465 C 114.243 69.147, 114.273 69.049, 113.216 67.913 C 111.545 66.116, 106.350 65.874, 104.976 67.529 M 119 67.309 C 119 67.754, 118.480 67.797, 117.845 67.405 C 117.200 67.005, 116.960 67.126, 117.301 67.679 C 117.945 68.720, 124 68.230, 124 67.137 C 124 66.786, 122.875 66.500, 121.500 66.500 C 120.125 66.500, 119 66.864, 119 67.309 M 125.175 72.309 C 125.079 74.954, 124.601 76.871, 124.113 76.570 C 123.626 76.269, 122.731 76.620, 122.125 77.350 C 121.244 78.411, 121.706 78.660, 124.428 78.591 C 126.628 78.536, 127.534 78.143, 126.986 77.483 C 126.519 76.921, 125.960 74.445, 125.743 71.980 L 125.349 67.500 125.175 72.309 M 14.079 70.583 C 14.127 71.748, 14.364 71.985, 14.683 71.188 C 14.972 70.466, 14.936 69.603, 14.604 69.271 C 14.272 68.939, 14.036 69.529, 14.079 70.583 M 163.079 70.583 C 163.127 71.748, 163.364 71.985, 163.683 71.188 C 163.972 70.466, 163.936 69.603, 163.604 69.271 C 163.272 68.939, 163.036 69.529, 163.079 70.583 M 103.223 72.875 C 103.176 74.522, 103.814 76.430, 104.640 77.116 C 106.299 78.493, 110.928 78.780, 112.801 77.623 C 114.255 76.724, 114.386 75, 113 75 C 112.450 75, 112.112 75.503, 112.250 76.117 C 112.390 76.743, 111.070 77.293, 109.250 77.367 C 107.171 77.452, 106 77.028, 106 76.191 C 106 75.454, 105.494 75.195, 104.842 75.597 C 104.058 76.082, 103.857 75.653, 104.220 74.267 C 104.514 73.142, 104.429 71.695, 104.031 71.051 C 103.627 70.396, 103.270 71.201, 103.223 72.875 M 121.738 70.692 C 120.769 70.945, 120.233 71.567, 120.547 72.076 C 121.402 73.460, 122.713 73.192, 123.362 71.500 C 123.678 70.675, 123.839 70.052, 123.719 70.116 C 123.598 70.180, 122.707 70.439, 121.738 70.692 M 118 73 C 118 73.733, 118.300 74.033, 118.667 73.667 C 119.033 73.300, 119.033 72.700, 118.667 72.333 C 118.300 71.967, 118 72.267, 118 73 M 116.079 75.583 C 116.127 76.748, 116.364 76.985, 116.683 76.188 C 116.972 75.466, 116.936 74.603, 116.604 74.271 C 116.272 73.939, 116.036 74.529, 116.079 75.583 M 118 78 C 118 78.733, 118.300 79.033, 118.667 78.667 C 119.033 78.300, 119.033 77.700, 118.667 77.333 C 118.300 76.967, 118 77.267, 118 78 M 14.079 91.583 C 14.127 92.748, 14.364 92.985, 14.683 92.188 C 14.972 91.466, 14.936 90.603, 14.604 90.271 C 14.272 89.939, 14.036 90.529, 14.079 91.583 M 163.079 91.583 C 163.127 92.748, 163.364 92.985, 163.683 92.188 C 163.972 91.466, 163.936 90.603, 163.604 90.271 C 163.272 89.939, 163.036 90.529, 163.079 91.583 M 15 97 C 15 97.733, 15.300 98.033, 15.667 97.667 C 16.033 97.300, 16.033 96.700, 15.667 96.333 C 15.300 95.967, 15 96.267, 15 97 M 162 97 C 162 97.733, 162.300 98.033, 162.667 97.667 C 163.033 97.300, 163.033 96.700, 162.667 96.333 C 162.300 95.967, 162 96.267, 162 97 M 16 101 C 16 101.733, 16.300 102.033, 16.667 101.667 C 17.033 101.300, 17.033 100.700, 16.667 100.333 C 16.300 99.967, 16 100.267, 16 101 M 161 101 C 161 101.733, 161.300 102.033, 161.667 101.667 C 162.033 101.300, 162.033 100.700, 161.667 100.333 C 161.300 99.967, 161 100.267, 161 101 M 19 110 C 19 110.733, 19.300 111.033, 19.667 110.667 C 20.033 110.300, 20.033 109.700, 19.667 109.333 C 19.300 108.967, 19 109.267, 19 110 M 158 110 C 158 110.733, 158.300 111.033, 158.667 110.667 C 159.033 110.300, 159.033 109.700, 158.667 109.333 C 158.300 108.967, 158 109.267, 158 110 M 23.500 119 C 23.840 119.550, 24.343 120, 24.618 120 C 24.893 120, 24.840 119.550, 24.500 119 C 24.160 118.450, 23.657 118, 23.382 118 C 23.107 118, 23.160 118.450, 23.500 119 M 153.405 119.155 C 152.962 119.870, 153.130 120.038, 153.845 119.595 C 154.998 118.883, 155.393 118, 154.559 118 C 154.316 118, 153.797 118.520, 153.405 119.155 M 26 123.378 C 26 123.585, 26.788 124.373, 27.750 125.128 C 29.336 126.371, 29.371 126.336, 28.128 124.750 C 26.821 123.084, 26 122.555, 26 123.378 M 149.872 124.750 C 148.629 126.336, 148.664 126.371, 150.250 125.128 C 151.213 124.373, 152 123.585, 152 123.378 C 152 122.555, 151.179 123.084, 149.872 124.750 M 31 129.500 C 32.292 130.875, 33.574 132, 33.849 132 C 34.124 132, 33.292 130.875, 32 129.500 C 30.708 128.125, 29.426 127, 29.151 127 C 28.876 127, 29.708 128.125, 31 129.500 M 145.437 130.250 L 142.500 133.500 145.750 130.563 C 147.537 128.948, 149 127.485, 149 127.313 C 149 126.540, 148.175 127.221, 145.437 130.250 M 39 137.500 C 40.292 138.875, 41.574 140, 41.849 140 C 42.124 140, 41.292 138.875, 40 137.500 C 38.708 136.125, 37.426 135, 37.151 135 C 36.876 135, 37.708 136.125, 39 137.500 M 137.924 137.750 L 135.500 140.500 138.250 138.076 C 140.820 135.810, 141.459 135, 140.674 135 C 140.495 135, 139.258 136.238, 137.924 137.750 M 44.500 142 C 44.840 142.550, 45.343 143, 45.618 143 C 45.893 143, 45.840 142.550, 45.500 142 C 45.160 141.450, 44.657 141, 44.382 141 C 44.107 141, 44.160 141.450, 44.500 142 M 132.405 142.155 C 131.962 142.870, 132.130 143.038, 132.845 142.595 C 133.480 142.203, 134 141.684, 134 141.441 C 134 140.607, 133.117 141.002, 132.405 142.155 M 47.500 144 C 47.840 144.550, 48.343 145, 48.618 145 C 48.893 145, 48.840 144.550, 48.500 144 C 48.160 143.450, 47.657 143, 47.382 143 C 47.107 143, 47.160 143.450, 47.500 144 M 129.405 144.155 C 128.962 144.870, 129.130 145.038, 129.845 144.595 C 130.480 144.203, 131 143.684, 131 143.441 C 131 142.607, 130.117 143.002, 129.405 144.155 M 52.500 147 C 52.840 147.550, 53.343 148, 53.618 148 C 53.893 148, 53.840 147.550, 53.500 147 C 53.160 146.450, 52.657 146, 52.382 146 C 52.107 146, 52.160 146.450, 52.500 147 M 122 148 C 120.075 149.054, 118.860 149.935, 119.300 149.958 C 120.359 150.014, 126 147.081, 126 146.474 C 126 145.820, 125.941 145.842, 122 148 M 57 149.500 C 58.375 150.286, 59.950 150.929, 60.500 150.929 C 61.050 150.929, 60.375 150.286, 59 149.500 C 57.625 148.714, 56.050 148.071, 55.500 148.071 C 54.950 148.071, 55.625 148.714, 57 149.500 M 62.333 151.667 C 62.700 152.033, 63.300 152.033, 63.667 151.667 C 64.033 151.300, 63.733 151, 63 151 C 62.267 151, 61.967 151.300, 62.333 151.667 M 114.333 151.667 C 114.700 152.033, 115.300 152.033, 115.667 151.667 C 116.033 151.300, 115.733 151, 115 151 C 114.267 151, 113.967 151.300, 114.333 151.667 M 68.333 153.667 C 68.700 154.033, 69.300 154.033, 69.667 153.667 C 70.033 153.300, 69.733 153, 69 153 C 68.267 153, 67.967 153.300, 68.333 153.667 M 108.333 153.667 C 108.700 154.033, 109.300 154.033, 109.667 153.667 C 110.033 153.300, 109.733 153, 109 153 C 108.267 153, 107.967 153.300, 108.333 153.667 M 72.333 154.667 C 72.700 155.033, 73.300 155.033, 73.667 154.667 C 74.033 154.300, 73.733 154, 73 154 C 72.267 154, 71.967 154.300, 72.333 154.667 M 104.333 154.667 C 104.700 155.033, 105.300 155.033, 105.667 154.667 C 106.033 154.300, 105.733 154, 105 154 C 104.267 154, 103.967 154.300, 104.333 154.667 M 78.813 155.683 C 79.534 155.972, 80.397 155.936, 80.729 155.604 C 81.061 155.272, 80.471 155.036, 79.417 155.079 C 78.252 155.127, 78.015 155.364, 78.813 155.683 M 97.813 155.683 C 98.534 155.972, 99.397 155.936, 99.729 155.604 C 100.061 155.272, 99.471 155.036, 98.417 155.079 C 97.252 155.127, 97.015 155.364, 97.813 155.683" stroke="none" fill="#fafafa" fill-rule="evenodd"/></svg>